<?xml version="1.0" encoding="UTF-8" standalone="no"?>
<!DOCTYPE svg PUBLIC "-//W3C//DTD SVG 1.1//EN"
 "http://www.w3.org/Graphics/SVG/1.1/DTD/svg11.dtd">
<!-- Generated by graphviz version 2.30.1 (20201013.1554)
 -->
<!-- Title: snakemake_dag Pages: 1 -->
<svg width="890pt" height="810pt"
 viewBox="0.00 0.00 890.00 810.00" xmlns="http://www.w3.org/2000/svg" xmlns:xlink="http://www.w3.org/1999/xlink">
<g id="graph0" class="graph" transform="scale(1 1) rotate(0) translate(4 806)">
<title>snakemake_dag</title>
<polygon fill="white" stroke="white" points="-4,5 -4,-806 887,-806 887,5 -4,5"/>
<!-- 0 -->
<g id="node1" class="node"><title>0</title>
<path fill="none" stroke="#56d8b9" stroke-width="2" d="M639,-36C639,-36 299,-36 299,-36 293,-36 287,-30 287,-24 287,-24 287,-12 287,-12 287,-6 293,-0 299,-0 299,-0 639,-0 639,-0 645,-0 651,-6 651,-12 651,-12 651,-24 651,-24 651,-30 645,-36 639,-36"/>
<text text-anchor="middle" x="469" y="-21" font-family="sans" font-size="10.00">QQ_PlotsRVAS</text>
<text text-anchor="middle" x="469" y="-10" font-family="sans" font-size="10.00">prefix: results/RVAS/rRVAS_max_EUR_POP_A1_PRS/0.001_A1.regenie.gz</text>
</g>
<!-- 1 -->
<g id="node2" class="node"><title>1</title>
<path fill="none" stroke="#8fd856" stroke-width="2" d="M542,-135.5C542,-135.5 396,-135.5 396,-135.5 390,-135.5 384,-129.5 384,-123.5 384,-123.5 384,-84.5 384,-84.5 384,-78.5 390,-72.5 396,-72.5 396,-72.5 542,-72.5 542,-72.5 548,-72.5 554,-78.5 554,-84.5 554,-84.5 554,-123.5 554,-123.5 554,-129.5 548,-135.5 542,-135.5"/>
<text text-anchor="middle" x="469" y="-123.5" font-family="sans" font-size="10.00">RegenieStep2_RVAS_SUM_SKAT</text>
<text text-anchor="middle" x="469" y="-112.5" font-family="sans" font-size="10.00">PRS: PRS</text>
<text text-anchor="middle" x="469" y="-101.5" font-family="sans" font-size="10.00">population: EUR</text>
<text text-anchor="middle" x="469" y="-90.5" font-family="sans" font-size="10.00">set: r</text>
<text text-anchor="middle" x="469" y="-79.5" font-family="sans" font-size="10.00">test: max</text>
</g>
<!-- 1&#45;&gt;0 -->
<g id="edge1" class="edge"><title>1&#45;&gt;0</title>
<path fill="none" stroke="grey" stroke-width="2" d="M469,-72.1985C469,-63.7337 469,-54.6142 469,-46.3577"/>
<polygon fill="grey" stroke="grey" points="472.5,-46.1284 469,-36.1284 465.5,-46.1284 472.5,-46.1284"/>
</g>
<!-- 2 -->
<g id="node3" class="node"><title>2</title>
<path fill="none" stroke="#61d856" stroke-width="2" d="M818,-211C818,-211 720,-211 720,-211 714,-211 708,-205 708,-199 708,-199 708,-187 708,-187 708,-181 714,-175 720,-175 720,-175 818,-175 818,-175 824,-175 830,-181 830,-187 830,-187 830,-199 830,-199 830,-205 824,-211 818,-211"/>
<text text-anchor="middle" x="769" y="-190.5" font-family="sans" font-size="10.00">AddPRS_ToCovariates</text>
</g>
<!-- 2&#45;&gt;1 -->
<g id="edge2" class="edge"><title>2&#45;&gt;1</title>
<path fill="none" stroke="grey" stroke-width="2" d="M710.088,-174.915C668.501,-162.855 611.881,-146.435 563.961,-132.539"/>
<polygon fill="grey" stroke="grey" points="564.768,-129.129 554.189,-129.705 562.818,-135.852 564.768,-129.129"/>
</g>
<!-- 3 -->
<g id="node4" class="node"><title>3</title>
<path fill="none" stroke="#56a9d8" stroke-width="2" d="M818,-286C818,-286 720,-286 720,-286 714,-286 708,-280 708,-274 708,-274 708,-262 708,-262 708,-256 714,-250 720,-250 720,-250 818,-250 818,-250 824,-250 830,-256 830,-262 830,-262 830,-274 830,-274 830,-280 824,-286 818,-286"/>
<text text-anchor="middle" x="769" y="-265.5" font-family="sans" font-size="10.00">MakeCovarFilesGWAS</text>
</g>
<!-- 3&#45;&gt;2 -->
<g id="edge8" class="edge"><title>3&#45;&gt;2</title>
<path fill="none" stroke="grey" stroke-width="2" d="M769,-249.7C769,-241.245 769,-230.869 769,-221.373"/>
<polygon fill="grey" stroke="grey" points="772.5,-221.176 769,-211.176 765.5,-221.176 772.5,-221.176"/>
</g>
<!-- 4 -->
<g id="node5" class="node"><title>4</title>
<path fill="none" stroke="#56d863" stroke-width="2" d="M827,-361C827,-361 711,-361 711,-361 705,-361 699,-355 699,-349 699,-349 699,-337 699,-337 699,-331 705,-325 711,-325 711,-325 827,-325 827,-325 833,-325 839,-331 839,-337 839,-337 839,-349 839,-349 839,-355 833,-361 827,-361"/>
<text text-anchor="middle" x="769" y="-340.5" font-family="sans" font-size="10.00">MakePCA_CovarForGWAS</text>
</g>
<!-- 4&#45;&gt;3 -->
<g id="edge10" class="edge"><title>4&#45;&gt;3</title>
<path fill="none" stroke="grey" stroke-width="2" d="M769,-324.7C769,-316.245 769,-305.869 769,-296.373"/>
<polygon fill="grey" stroke="grey" points="772.5,-296.176 769,-286.176 765.5,-296.176 772.5,-296.176"/>
</g>
<!-- 5 -->
<g id="node6" class="node"><title>5</title>
<path fill="none" stroke="#56d85b" stroke-width="2" d="M832,-436C832,-436 706,-436 706,-436 700,-436 694,-430 694,-424 694,-424 694,-412 694,-412 694,-406 700,-400 706,-400 706,-400 832,-400 832,-400 838,-400 844,-406 844,-412 844,-412 844,-424 844,-424 844,-430 838,-436 832,-436"/>
<text text-anchor="middle" x="769" y="-415.5" font-family="sans" font-size="10.00">AdditionalGWAS_SpecifcQC</text>
</g>
<!-- 5&#45;&gt;4 -->
<g id="edge11" class="edge"><title>5&#45;&gt;4</title>
<path fill="none" stroke="grey" stroke-width="2" d="M769,-399.7C769,-391.245 769,-380.869 769,-371.373"/>
<polygon fill="grey" stroke="grey" points="772.5,-371.176 769,-361.176 765.5,-371.176 772.5,-371.176"/>
</g>
<!-- 6 -->
<g id="node7" class="node"><title>6</title>
<path fill="none" stroke="#d87556" stroke-width="2" d="M870,-508C870,-508 760,-508 760,-508 754,-508 748,-502 748,-496 748,-496 748,-484 748,-484 748,-478 754,-472 760,-472 760,-472 870,-472 870,-472 876,-472 882,-478 882,-484 882,-484 882,-496 882,-496 882,-502 876,-508 870,-508"/>
<text text-anchor="middle" x="815" y="-493" font-family="sans" font-size="10.00">MakePhenoFileForGWAS</text>
<text text-anchor="middle" x="815" y="-482" font-family="sans" font-size="10.00">pheno: A1</text>
</g>
<!-- 6&#45;&gt;1 -->
<g id="edge3" class="edge"><title>6&#45;&gt;1</title>
<path fill="none" stroke="grey" stroke-width="2" d="M830.017,-471.988C837.981,-462.111 847.276,-449.067 853,-436 869.752,-397.756 872,-385.752 872,-344 872,-344 872,-344 872,-267 872,-222.303 872.96,-201.061 839,-172 798.581,-137.412 659.658,-119.709 564.039,-111.41"/>
<polygon fill="grey" stroke="grey" points="564.316,-107.921 554.056,-110.563 563.725,-114.896 564.316,-107.921"/>
</g>
<!-- 6&#45;&gt;5 -->
<g id="edge12" class="edge"><title>6&#45;&gt;5</title>
<path fill="none" stroke="grey" stroke-width="2" d="M803.629,-471.697C798.282,-463.559 791.796,-453.689 785.889,-444.701"/>
<polygon fill="grey" stroke="grey" points="788.657,-442.539 780.24,-436.104 782.807,-446.384 788.657,-442.539"/>
</g>
<!-- 7 -->
<g id="node8" class="node"><title>7</title>
<path fill="none" stroke="#d8ac56" stroke-width="2" d="M824,-585.5C824,-585.5 738,-585.5 738,-585.5 732,-585.5 726,-579.5 726,-573.5 726,-573.5 726,-556.5 726,-556.5 726,-550.5 732,-544.5 738,-544.5 738,-544.5 824,-544.5 824,-544.5 830,-544.5 836,-550.5 836,-556.5 836,-556.5 836,-573.5 836,-573.5 836,-579.5 830,-585.5 824,-585.5"/>
<text text-anchor="middle" x="781" y="-573.5" font-family="sans" font-size="10.00">SelectSubcohort</text>
<text text-anchor="middle" x="781" y="-562.5" font-family="sans" font-size="10.00">set: common</text>
<text text-anchor="middle" x="781" y="-551.5" font-family="sans" font-size="10.00">subset: EURs_unrel</text>
</g>
<!-- 7&#45;&gt;6 -->
<g id="edge13" class="edge"><title>7&#45;&gt;6</title>
<path fill="none" stroke="grey" stroke-width="2" d="M790.111,-544.437C793.983,-536.125 798.555,-526.307 802.718,-517.37"/>
<polygon fill="grey" stroke="grey" points="805.972,-518.672 807.022,-508.13 799.627,-515.717 805.972,-518.672"/>
</g>
<!-- 8 -->
<g id="node9" class="node"><title>8</title>
<path fill="none" stroke="#bed856" stroke-width="2" d="M693,-658C693,-658 637,-658 637,-658 631,-658 625,-652 625,-646 625,-646 625,-634 625,-634 625,-628 631,-622 637,-622 637,-622 693,-622 693,-622 699,-622 705,-628 705,-634 705,-634 705,-646 705,-646 705,-652 699,-658 693,-658"/>
<text text-anchor="middle" x="665" y="-637.5" font-family="sans" font-size="10.00">MakeVarSets</text>
</g>
<!-- 8&#45;&gt;7 -->
<g id="edge14" class="edge"><title>8&#45;&gt;7</title>
<path fill="none" stroke="grey" stroke-width="2" d="M692.197,-621.885C706.774,-612.711 725.009,-601.236 741.156,-591.074"/>
<polygon fill="grey" stroke="grey" points="743.275,-593.876 749.875,-585.587 739.547,-587.951 743.275,-593.876"/>
</g>
<!-- 11 -->
<g id="node12" class="node"><title>11</title>
<path fill="none" stroke="#80d856" stroke-width="2" d="M717.25,-508C717.25,-508 612.75,-508 612.75,-508 606.75,-508 600.75,-502 600.75,-496 600.75,-496 600.75,-484 600.75,-484 600.75,-478 606.75,-472 612.75,-472 612.75,-472 717.25,-472 717.25,-472 723.25,-472 729.25,-478 729.25,-484 729.25,-484 729.25,-496 729.25,-496 729.25,-502 723.25,-508 717.25,-508"/>
<text text-anchor="middle" x="665" y="-487.5" font-family="sans" font-size="10.00">CalculateIndividualPRS</text>
</g>
<!-- 8&#45;&gt;11 -->
<g id="edge18" class="edge"><title>8&#45;&gt;11</title>
<path fill="none" stroke="grey" stroke-width="2" d="M665,-621.733C665,-596.334 665,-548.651 665,-518.428"/>
<polygon fill="grey" stroke="grey" points="668.5,-518.157 665,-508.157 661.5,-518.157 668.5,-518.157"/>
</g>
<!-- 14 -->
<g id="node15" class="node"><title>14</title>
<path fill="none" stroke="#d8ac56" stroke-width="2" d="M614,-363.5C614,-363.5 528,-363.5 528,-363.5 522,-363.5 516,-357.5 516,-351.5 516,-351.5 516,-334.5 516,-334.5 516,-328.5 522,-322.5 528,-322.5 528,-322.5 614,-322.5 614,-322.5 620,-322.5 626,-328.5 626,-334.5 626,-334.5 626,-351.5 626,-351.5 626,-357.5 620,-363.5 614,-363.5"/>
<text text-anchor="middle" x="571" y="-351.5" font-family="sans" font-size="10.00">SelectSubcohort</text>
<text text-anchor="middle" x="571" y="-340.5" font-family="sans" font-size="10.00">set: general</text>
<text text-anchor="middle" x="571" y="-329.5" font-family="sans" font-size="10.00">subset: EURs_unrel</text>
</g>
<!-- 8&#45;&gt;14 -->
<g id="edge21" class="edge"><title>8&#45;&gt;14</title>
<path fill="none" stroke="grey" stroke-width="2" d="M652.335,-621.821C635.291,-597.73 605.446,-551.919 591,-508 576.12,-462.761 572.129,-407.219 571.161,-373.767"/>
<polygon fill="grey" stroke="grey" points="574.659,-373.645 570.943,-363.724 567.661,-373.797 574.659,-373.645"/>
</g>
<!-- 9 -->
<g id="node10" class="node"><title>9</title>
<path fill="none" stroke="#56d8b1" stroke-width="2" d="M730.25,-730C730.25,-730 669.75,-730 669.75,-730 663.75,-730 657.75,-724 657.75,-718 657.75,-718 657.75,-706 657.75,-706 657.75,-700 663.75,-694 669.75,-694 669.75,-694 730.25,-694 730.25,-694 736.25,-694 742.25,-700 742.25,-706 742.25,-706 742.25,-718 742.25,-718 742.25,-724 736.25,-730 730.25,-730"/>
<text text-anchor="middle" x="700" y="-709.5" font-family="sans" font-size="10.00">ConvertToHail</text>
</g>
<!-- 9&#45;&gt;8 -->
<g id="edge15" class="edge"><title>9&#45;&gt;8</title>
<path fill="none" stroke="grey" stroke-width="2" d="M691.348,-693.697C687.364,-685.728 682.55,-676.1 678.132,-667.264"/>
<polygon fill="grey" stroke="grey" points="681.155,-665.483 673.552,-658.104 674.894,-668.614 681.155,-665.483"/>
</g>
<!-- 10 -->
<g id="node11" class="node"><title>10</title>
<path fill="none" stroke="#56d8d0" stroke-width="2" d="M695,-802C695,-802 633,-802 633,-802 627,-802 621,-796 621,-790 621,-790 621,-778 621,-778 621,-772 627,-766 633,-766 633,-766 695,-766 695,-766 701,-766 707,-772 707,-778 707,-778 707,-790 707,-790 707,-796 701,-802 695,-802"/>
<text text-anchor="middle" x="664" y="-781.5" font-family="sans" font-size="10.00">NormalizeBCF</text>
</g>
<!-- 10&#45;&gt;8 -->
<g id="edge16" class="edge"><title>10&#45;&gt;8</title>
<path fill="none" stroke="grey" stroke-width="2" d="M657.348,-765.628C653.797,-755.421 649.797,-742.171 648,-730 645.663,-714.172 645.527,-709.808 648,-694 649.359,-685.312 651.9,-676.104 654.611,-667.843"/>
<polygon fill="grey" stroke="grey" points="657.939,-668.93 657.934,-658.335 651.331,-666.62 657.939,-668.93"/>
</g>
<!-- 10&#45;&gt;9 -->
<g id="edge17" class="edge"><title>10&#45;&gt;9</title>
<path fill="none" stroke="grey" stroke-width="2" d="M672.899,-765.697C676.997,-757.728 681.949,-748.1 686.493,-739.264"/>
<polygon fill="grey" stroke="grey" points="689.742,-740.598 691.203,-730.104 683.517,-737.396 689.742,-740.598"/>
</g>
<!-- 11&#45;&gt;2 -->
<g id="edge9" class="edge"><title>11&#45;&gt;2</title>
<path fill="none" stroke="grey" stroke-width="2" d="M663.322,-471.706C660.141,-430.351 656.927,-323.707 699,-250 706.388,-237.057 718.043,-225.962 729.739,-217.142"/>
<polygon fill="grey" stroke="grey" points="732.078,-219.774 738.203,-211.129 728.024,-214.068 732.078,-219.774"/>
</g>
<!-- 12 -->
<g id="node13" class="node"><title>12</title>
<path fill="none" stroke="#567bd8" stroke-width="2" d="M678,-213.5C678,-213.5 464,-213.5 464,-213.5 458,-213.5 452,-207.5 452,-201.5 452,-201.5 452,-184.5 452,-184.5 452,-178.5 458,-172.5 464,-172.5 464,-172.5 678,-172.5 678,-172.5 684,-172.5 690,-178.5 690,-184.5 690,-184.5 690,-201.5 690,-201.5 690,-207.5 684,-213.5 678,-213.5"/>
<text text-anchor="middle" x="571" y="-201.5" font-family="sans" font-size="10.00">PrefilterPlinkForAF</text>
<text text-anchor="middle" x="571" y="-190.5" font-family="sans" font-size="10.00">AF: 0.001</text>
<text text-anchor="middle" x="571" y="-179.5" font-family="sans" font-size="10.00">plink: results/var_sets/EURs_unrel/A1/general</text>
</g>
<!-- 12&#45;&gt;1 -->
<g id="edge4" class="edge"><title>12&#45;&gt;1</title>
<path fill="none" stroke="grey" stroke-width="2" d="M548.109,-172.476C537.702,-163.599 525.023,-152.785 512.892,-142.437"/>
<polygon fill="grey" stroke="grey" points="514.908,-139.557 505.029,-135.73 510.366,-144.883 514.908,-139.557"/>
</g>
<!-- 13 -->
<g id="node14" class="node"><title>13</title>
<path fill="none" stroke="#d87556" stroke-width="2" d="M626,-286C626,-286 516,-286 516,-286 510,-286 504,-280 504,-274 504,-274 504,-262 504,-262 504,-256 510,-250 516,-250 516,-250 626,-250 626,-250 632,-250 638,-256 638,-262 638,-262 638,-274 638,-274 638,-280 632,-286 626,-286"/>
<text text-anchor="middle" x="571" y="-271" font-family="sans" font-size="10.00">MakePhenoFileForGWAS</text>
<text text-anchor="middle" x="571" y="-260" font-family="sans" font-size="10.00">pheno: A1</text>
</g>
<!-- 13&#45;&gt;12 -->
<g id="edge19" class="edge"><title>13&#45;&gt;12</title>
<path fill="none" stroke="grey" stroke-width="2" d="M571,-249.7C571,-242.026 571,-232.77 571,-224.026"/>
<polygon fill="grey" stroke="grey" points="574.5,-223.755 571,-213.755 567.5,-223.755 574.5,-223.755"/>
</g>
<!-- 14&#45;&gt;13 -->
<g id="edge20" class="edge"><title>14&#45;&gt;13</title>
<path fill="none" stroke="grey" stroke-width="2" d="M571,-322.437C571,-314.391 571,-304.933 571,-296.228"/>
<polygon fill="grey" stroke="grey" points="574.5,-296.13 571,-286.13 567.5,-296.13 574.5,-296.13"/>
</g>
<!-- 22 -->
<g id="node23" class="node"><title>22</title>
<path fill="none" stroke="#d6d856" stroke-width="2" d="M472,-286C472,-286 414,-286 414,-286 408,-286 402,-280 402,-274 402,-274 402,-262 402,-262 402,-256 408,-250 414,-250 414,-250 472,-250 472,-250 478,-250 484,-256 484,-262 484,-262 484,-274 484,-274 484,-280 478,-286 472,-286"/>
<text text-anchor="middle" x="443" y="-265.5" font-family="sans" font-size="10.00">CalcFreqPlink</text>
</g>
<!-- 14&#45;&gt;22 -->
<g id="edge29" class="edge"><title>14&#45;&gt;22</title>
<path fill="none" stroke="grey" stroke-width="2" d="M536.698,-322.437C519.798,-312.799 499.348,-301.136 481.87,-291.168"/>
<polygon fill="grey" stroke="grey" points="483.456,-288.043 473.036,-286.13 479.988,-294.124 483.456,-288.043"/>
</g>
<!-- 15 -->
<g id="node16" class="node"><title>15</title>
<path fill="none" stroke="#a7d856" stroke-width="2" d="M270,-211C270,-211 162,-211 162,-211 156,-211 150,-205 150,-199 150,-199 150,-187 150,-187 150,-181 156,-175 162,-175 162,-175 270,-175 270,-175 276,-175 282,-181 282,-187 282,-187 282,-199 282,-199 282,-205 276,-211 270,-211"/>
<text text-anchor="middle" x="216" y="-196" font-family="sans" font-size="10.00">MergeRegenieAnnoFiles</text>
<text text-anchor="middle" x="216" y="-185" font-family="sans" font-size="10.00">filetype: anno.file</text>
</g>
<!-- 15&#45;&gt;1 -->
<g id="edge5" class="edge"><title>15&#45;&gt;1</title>
<path fill="none" stroke="grey" stroke-width="2" d="M265.683,-174.915C296.529,-164.308 337.182,-150.329 374.024,-137.66"/>
<polygon fill="grey" stroke="grey" points="375.482,-140.86 383.8,-134.298 373.205,-134.24 375.482,-140.86"/>
</g>
<!-- 16 -->
<g id="node17" class="node"><title>16</title>
<path fill="none" stroke="#9fd856" stroke-width="2" d="M268,-361C268,-361 164,-361 164,-361 158,-361 152,-355 152,-349 152,-349 152,-337 152,-337 152,-331 158,-325 164,-325 164,-325 268,-325 268,-325 274,-325 280,-331 280,-337 280,-337 280,-349 280,-349 280,-355 274,-361 268,-361"/>
<text text-anchor="middle" x="216" y="-340.5" font-family="sans" font-size="10.00">MakeRegenieAnnoFiles</text>
</g>
<!-- 16&#45;&gt;15 -->
<g id="edge22" class="edge"><title>16&#45;&gt;15</title>
<path fill="none" stroke="grey" stroke-width="2" d="M216,-324.733C216,-299.334 216,-251.651 216,-221.428"/>
<polygon fill="grey" stroke="grey" points="219.5,-221.157 216,-211.157 212.5,-221.157 219.5,-221.157"/>
</g>
<!-- 23 -->
<g id="node24" class="node"><title>23</title>
<path fill="none" stroke="#a7d856" stroke-width="2" d="M367,-286C367,-286 259,-286 259,-286 253,-286 247,-280 247,-274 247,-274 247,-262 247,-262 247,-256 253,-250 259,-250 259,-250 367,-250 367,-250 373,-250 379,-256 379,-262 379,-262 379,-274 379,-274 379,-280 373,-286 367,-286"/>
<text text-anchor="middle" x="313" y="-271" font-family="sans" font-size="10.00">MergeRegenieAnnoFiles</text>
<text text-anchor="middle" x="313" y="-260" font-family="sans" font-size="10.00">filetype: aaf.file</text>
</g>
<!-- 16&#45;&gt;23 -->
<g id="edge30" class="edge"><title>16&#45;&gt;23</title>
<path fill="none" stroke="grey" stroke-width="2" d="M238.988,-324.7C251.793,-315.063 267.914,-302.93 281.84,-292.45"/>
<polygon fill="grey" stroke="grey" points="284.292,-294.986 290.177,-286.176 280.083,-289.392 284.292,-294.986"/>
</g>
<!-- 24 -->
<g id="node25" class="node"><title>24</title>
<path fill="none" stroke="#a7d856" stroke-width="2" d="M120,-211C120,-211 12,-211 12,-211 6,-211 0,-205 0,-199 0,-199 0,-187 0,-187 0,-181 6,-175 12,-175 12,-175 120,-175 120,-175 126,-175 132,-181 132,-187 132,-187 132,-199 132,-199 132,-205 126,-211 120,-211"/>
<text text-anchor="middle" x="66" y="-196" font-family="sans" font-size="10.00">MergeRegenieAnnoFiles</text>
<text text-anchor="middle" x="66" y="-185" font-family="sans" font-size="10.00">filetype: set.list</text>
</g>
<!-- 16&#45;&gt;24 -->
<g id="edge31" class="edge"><title>16&#45;&gt;24</title>
<path fill="none" stroke="grey" stroke-width="2" d="M198.5,-324.733C171.854,-298.443 121.01,-248.277 90.6416,-218.313"/>
<polygon fill="grey" stroke="grey" points="92.9656,-215.689 83.389,-211.157 88.0492,-220.672 92.9656,-215.689"/>
</g>
<!-- 17 -->
<g id="node18" class="node"><title>17</title>
<path fill="none" stroke="#56d8a9" stroke-width="2" d="M269.25,-436C269.25,-436 162.75,-436 162.75,-436 156.75,-436 150.75,-430 150.75,-424 150.75,-424 150.75,-412 150.75,-412 150.75,-406 156.75,-400 162.75,-400 162.75,-400 269.25,-400 269.25,-400 275.25,-400 281.25,-406 281.25,-412 281.25,-412 281.25,-424 281.25,-424 281.25,-430 275.25,-436 269.25,-436"/>
<text text-anchor="middle" x="216" y="-415.5" font-family="sans" font-size="10.00">ReformatVEP_For_RVAS</text>
</g>
<!-- 17&#45;&gt;16 -->
<g id="edge23" class="edge"><title>17&#45;&gt;16</title>
<path fill="none" stroke="grey" stroke-width="2" d="M216,-399.7C216,-391.245 216,-380.869 216,-371.373"/>
<polygon fill="grey" stroke="grey" points="219.5,-371.176 216,-361.176 212.5,-371.176 219.5,-371.176"/>
</g>
<!-- 18 -->
<g id="node19" class="node"><title>18</title>
<path fill="none" stroke="#5692d8" stroke-width="2" d="M251,-508C251,-508 181,-508 181,-508 175,-508 169,-502 169,-496 169,-496 169,-484 169,-484 169,-478 175,-472 181,-472 181,-472 251,-472 251,-472 257,-472 263,-478 263,-484 263,-484 263,-496 263,-496 263,-502 257,-508 251,-508"/>
<text text-anchor="middle" x="216" y="-487.5" font-family="sans" font-size="10.00">VEP_Annotation</text>
</g>
<!-- 18&#45;&gt;17 -->
<g id="edge24" class="edge"><title>18&#45;&gt;17</title>
<path fill="none" stroke="grey" stroke-width="2" d="M216,-471.697C216,-463.983 216,-454.712 216,-446.112"/>
<polygon fill="grey" stroke="grey" points="219.5,-446.104 216,-436.104 212.5,-446.104 219.5,-446.104"/>
</g>
<!-- 19 -->
<g id="node20" class="node"><title>19</title>
<path fill="none" stroke="#80d856" stroke-width="2" d="M258,-583C258,-583 174,-583 174,-583 168,-583 162,-577 162,-571 162,-571 162,-559 162,-559 162,-553 168,-547 174,-547 174,-547 258,-547 258,-547 264,-547 270,-553 270,-559 270,-559 270,-571 270,-571 270,-577 264,-583 258,-583"/>
<text text-anchor="middle" x="216" y="-568" font-family="sans" font-size="10.00">PrefilterBcf_w_Bed</text>
<text text-anchor="middle" x="216" y="-557" font-family="sans" font-size="10.00">contig: 1</text>
</g>
<!-- 19&#45;&gt;18 -->
<g id="edge25" class="edge"><title>19&#45;&gt;18</title>
<path fill="none" stroke="grey" stroke-width="2" d="M216,-546.7C216,-538.245 216,-527.869 216,-518.373"/>
<polygon fill="grey" stroke="grey" points="219.5,-518.176 216,-508.176 212.5,-518.176 219.5,-518.176"/>
</g>
<!-- 20 -->
<g id="node21" class="node"><title>20</title>
<path fill="none" stroke="#56b1d8" stroke-width="2" d="M276.25,-658C276.25,-658 155.75,-658 155.75,-658 149.75,-658 143.75,-652 143.75,-646 143.75,-646 143.75,-634 143.75,-634 143.75,-628 149.75,-622 155.75,-622 155.75,-622 276.25,-622 276.25,-622 282.25,-622 288.25,-628 288.25,-634 288.25,-634 288.25,-646 288.25,-646 288.25,-652 282.25,-658 276.25,-658"/>
<text text-anchor="middle" x="216" y="-637.5" font-family="sans" font-size="10.00">GetBedOfRelevantRegions</text>
</g>
<!-- 20&#45;&gt;19 -->
<g id="edge26" class="edge"><title>20&#45;&gt;19</title>
<path fill="none" stroke="grey" stroke-width="2" d="M216,-621.7C216,-613.245 216,-602.869 216,-593.373"/>
<polygon fill="grey" stroke="grey" points="219.5,-593.176 216,-583.176 212.5,-593.176 219.5,-593.176"/>
</g>
<!-- 21 -->
<g id="node22" class="node"><title>21</title>
<path fill="none" stroke="#5663d8" stroke-width="2" d="M421.25,-211C421.25,-211 312.75,-211 312.75,-211 306.75,-211 300.75,-205 300.75,-199 300.75,-199 300.75,-187 300.75,-187 300.75,-181 306.75,-175 312.75,-175 312.75,-175 421.25,-175 421.25,-175 427.25,-175 433.25,-181 433.25,-187 433.25,-187 433.25,-199 433.25,-199 433.25,-205 427.25,-211 421.25,-211"/>
<text text-anchor="middle" x="367" y="-190.5" font-family="sans" font-size="10.00">MergeAafFilesDataAnno</text>
</g>
<!-- 21&#45;&gt;1 -->
<g id="edge6" class="edge"><title>21&#45;&gt;1</title>
<path fill="none" stroke="grey" stroke-width="2" d="M387.152,-174.812C398.12,-165.456 412.138,-153.5 425.462,-142.136"/>
<polygon fill="grey" stroke="grey" points="427.861,-144.69 433.198,-135.537 423.318,-139.364 427.861,-144.69"/>
</g>
<!-- 22&#45;&gt;21 -->
<g id="edge27" class="edge"><title>22&#45;&gt;21</title>
<path fill="none" stroke="grey" stroke-width="2" d="M424.989,-249.7C415.24,-240.336 403.038,-228.615 392.345,-218.344"/>
<polygon fill="grey" stroke="grey" points="394.518,-215.579 384.882,-211.176 389.669,-220.627 394.518,-215.579"/>
</g>
<!-- 23&#45;&gt;21 -->
<g id="edge28" class="edge"><title>23&#45;&gt;21</title>
<path fill="none" stroke="grey" stroke-width="2" d="M325.797,-249.7C332.522,-240.609 340.891,-229.296 348.326,-219.245"/>
<polygon fill="grey" stroke="grey" points="351.161,-221.297 354.295,-211.176 345.534,-217.134 351.161,-221.297"/>
</g>
<!-- 24&#45;&gt;1 -->
<g id="edge7" class="edge"><title>24&#45;&gt;1</title>
<path fill="none" stroke="grey" stroke-width="2" d="M128.95,-174.924C133.022,-173.909 137.065,-172.926 141,-172 219.029,-153.644 308.185,-135.619 373.829,-122.897"/>
<polygon fill="grey" stroke="grey" points="374.594,-126.314 383.748,-120.981 373.266,-119.442 374.594,-126.314"/>
</g>
</g>
</svg>
